<svg xmlns="http://www.w3.org/2000/svg" width="285.8" height="463.42" viewBox="0 0 285.8 463.42"><defs><style>.cls-1{fill:#fff;}.cls-2{fill:#fd0000;}</style></defs><title>move</title><g id="Layer_2" data-name="Layer 2"><g id="Layer_1-2" data-name="Layer 1"><path class="cls-1" d="M285.59,457,251.16,341.21c.14-4.5.86-27.13,2.07-45a128,128,0,0,0-6.54-50.07c-3.68-10.79-8.41-22.89-13.88-36.9q-1.83-4.67-3.76-9.62c-13.43-34.52-38.48-37.23-43.64-37.42l-.19-.26c-14.22-17.26-30.65-14.64-40-9.51L106.74,67.45A17.46,17.46,0,0,0,74.47,80.73C100.4,150.38,112.85,191,114.72,204c-4-3-12.66-11.52-29.77-35.85C70.46,147.56,55.78,124,48.32,111.79a16,16,0,0,0-28.23,15.07c8.19,17.76,28.47,61.43,39.84,83.28q1.92,3.71,3.62,7.22c2.38,8.5,0,19.19-2.33,29.54-1.55,6.92-3.15,14.07-3.4,20.79a86.1,86.1,0,0,0,.19,8.9l.49,7a78.18,78.18,0,0,0,32,57.93l27.47,20a65.91,65.91,0,0,1,25.23,37.77l14.55,60.26a5,5,0,0,0,4.85,3.83,5.28,5.28,0,0,0,1.18-.14,5,5,0,0,0,3.69-6L152.91,397a76,76,0,0,0-29-43.5l-27.48-20A68.22,68.22,0,0,1,68.47,282.9l-.48-7a74.72,74.72,0,0,1-.18-7.86c.21-5.79,1.65-12.19,3.17-19,.72-3.21,1.44-6.46,2-9.71a167.3,167.3,0,0,1,6,18.48,5,5,0,0,0,4.87,3.86,4.92,4.92,0,0,0,1.14-.13,5,5,0,0,0,3.73-6c-.2-.87-5.13-21.6-19.94-50.06-11.27-21.66-31.47-65.16-39.63-82.86A6,6,0,0,1,39.79,117c7.44,12.19,22.1,35.72,36.66,56.47,24.57,35,33.77,40.81,39,41.94a8.21,8.21,0,0,0,6.56-1.15l.47-.37c2.94-2.57,3.67-6.86-.46-23.21-2.33-9.23-6.15-21.9-11.35-37.65-9.29-28.12-20.81-59.56-26.85-75.79a7.45,7.45,0,0,1,13.77-5.67L152,191.75a68.59,68.59,0,0,0,18.68,24.44l5.93,4.91a5,5,0,0,0,6.38-7.71l-5.94-4.91a58.47,58.47,0,0,1-15.94-20.86l-11.79-26.05c4.51-2.64,16.42-7.4,28,6.52a163.42,163.42,0,0,1,13,23.26,5,5,0,0,0,4.59,3,4.84,4.84,0,0,0,2-.42,5,5,0,0,0,2.59-6.57c-.15-.35-2.65-6.06-7-13.69,7.73,2.64,19.5,9.85,27.16,29.54q1.94,5,3.76,9.63c5.44,13.9,10.13,25.9,13.73,36.48a117.73,117.73,0,0,1,6,46.17c-1.36,20.07-2.1,46-2.11,46.23l0,.8L276,459.84a5,5,0,0,0,4.79,3.58,5.1,5.1,0,0,0,1.43-.21A5,5,0,0,0,285.59,457Z"/><path class="cls-2" d="M75.06,82.3l-.59-1.58a17.44,17.44,0,0,1,30-17A18.54,18.54,0,1,0,75.06,82.3Z"/><path class="cls-2" d="M80.47,97c-.58-1.59-1.17-3.19-1.77-4.82A25.75,25.75,0,1,1,110.6,76L113,81.23A30,30,0,1,0,80.47,97Z"/><path class="cls-2" d="M20.09,126.86a16,16,0,0,1,28.23-15.07c2.3,3.76,5.29,8.61,8.74,14.11a30,30,0,1,0-29.64,16.77C24.51,136.42,22,131,20.09,126.86Z"/><path class="cls-2" d="M2.48,27.62a8.5,8.5,0,0,0,0,12h0a8.49,8.49,0,0,0,12,0l7-7.06.07,36.28a8.5,8.5,0,0,0,17,0l-.07-36.28,7.07,7a8.5,8.5,0,0,0,12-12L30,0Z"/></g></g></svg>