<svg xmlns="http://www.w3.org/2000/svg" width="300.14" height="417" viewBox="0 0 300.14 417"><defs><style>.cls-1{fill:#fff;}.cls-2{fill:#fd0000;}</style></defs><title>zoom</title><g id="Layer_2" data-name="Layer 2"><g id="Layer_1-2" data-name="Layer 1"><path class="cls-1" d="M275.07,197.08c-5.66-10.16-17-22.43-49.76-11.74a121.62,121.62,0,0,0-25.54,11.88c-6.55,4-12.19,7.74-17.16,11.05-20.55,13.66-24.78,15.39-31.93,6.63-7.64-9.35-26.23-76.18-48.51-174.42A19.77,19.77,0,0,0,79,25.38,15.45,15.45,0,0,0,66.52,43l10.91,71a20.23,20.23,0,0,0-7.14.29l-3.63.81a20,20,0,0,0-15.38,16l-1.65,9.1L46,143.89a62.7,62.7,0,0,0-18,39.35l-.11,1.55A38.72,38.72,0,0,0,6.82,208.45l-3.13,10a81,81,0,0,0,2.67,55.66l15.26,36.17a101.85,101.85,0,0,1,7.21,52.09l-6.1,49A5,5,0,0,0,27.07,417l.62,0a5,5,0,0,0,5-4.38l6.1-49a111.85,111.85,0,0,0-7.92-57.22L15.58,270.24a71,71,0,0,1-2.35-48.79l3.14-10A28.64,28.64,0,0,1,27,196.77l-.15,2a5,5,0,0,0,4.61,5.37h.38a5,5,0,0,0,5-4.62l.76-10a4.91,4.91,0,0,0,.14-1.8L38,184a52.66,52.66,0,0,1,9.65-26.57A138,138,0,0,0,48.29,180l1.63,14.4a5,5,0,0,0,5,4.43,3.51,3.51,0,0,0,.56,0,5,5,0,0,0,4.41-5.53l-1.62-14.39a126.49,126.49,0,0,1,1.22-36.7l1.67-9.21a10,10,0,0,1,7.72-8l3.63-.81a10,10,0,0,1,6.63.78l6.53,42.55a5,5,0,1,0,9.88-1.51L76.41,41.47A5.5,5.5,0,0,1,80.9,35.2a9.81,9.81,0,0,1,11.51,7.5C106.1,103,130.86,206.46,142.93,221.23c6.34,7.76,13.1,10.44,21.27,8.43,6.81-1.67,14-6.45,23.94-13.07,4.9-3.25,10.46-7,16.84-10.83a111.86,111.86,0,0,1,23.43-10.92c28.76-9.37,34.94,1.75,37.92,7.1a.61.61,0,0,1,0,.56.73.73,0,0,1-.44.42c-24.36,8.19-51.39,32.28-65.33,45.9A144.69,144.69,0,0,0,182,271.14l-28,41.35a65.28,65.28,0,0,0-11.18,34.21l-2.41,65.12a5,5,0,0,0,4.82,5.18h.18a5,5,0,0,0,5-4.81l2.4-65.12a55.29,55.29,0,0,1,9.47-29l28-41.36A135.06,135.06,0,0,1,207.58,256c13.33-13,39-36,61.53-43.57a10.72,10.72,0,0,0,6.58-6.3A10.61,10.61,0,0,0,275.07,197.08Z"/><path class="cls-2" d="M270.14,168a30,30,0,0,0-24.91,13.28c17.91-.91,25.52,8.05,29.84,15.79a10.71,10.71,0,0,1-6,15.33A93.87,93.87,0,0,0,251,221.1,30,30,0,1,0,270.14,168Z"/><path class="cls-2" d="M68.64,56.79,66.52,43A15.45,15.45,0,0,1,79,25.38a19.77,19.77,0,0,1,23.15,15.1c.73,3.26,1.47,6.48,2.2,9.67a30,30,0,1,0-35.73,6.64Z"/><path class="cls-2" d="M124.48,95.15a8.5,8.5,0,0,0,9.17,7.77h0a8.49,8.49,0,0,0,7.77-9.17l-.82-9.94,27.68,23.45a8.5,8.5,0,1,0,11-13L151.59,70.84l9.95-.82a8.5,8.5,0,0,0-1.4-16.95l-38.87,3.21Z"/><path class="cls-2" d="M241.76,122a8.49,8.49,0,0,0-9.09-7.87h0a8.5,8.5,0,0,0-7.86,9.09l.72,10L198.09,109.4A8.5,8.5,0,1,0,187,122.25L214.41,146l-10,.72a8.5,8.5,0,0,0,1.23,17l38.9-2.82Z"/></g></g></svg>